<mxfile host="app.diagrams.net" modified="2023-04-15T22:17:27.041Z" agent="Mozilla/5.0 (Windows NT 10.0; Win64; x64) AppleWebKit/537.36 (KHTML, like Gecko) Chrome/112.0.0.0 Safari/537.36 Edg/112.0.1722.39" etag="VRRow-WAYuMpcjPKiMPK" version="21.1.8" type="github">
  <diagram name="Page-1" id="9f46799a-70d6-7492-0946-bef42562c5a5">
    <mxGraphModel dx="3133" dy="1808" grid="1" gridSize="10" guides="1" tooltips="1" connect="1" arrows="1" fold="1" page="1" pageScale="1" pageWidth="1920" pageHeight="1200" background="none" math="0" shadow="0">
      <root>
        <mxCell id="0" />
        <mxCell id="1" parent="0" />
        <mxCell id="4NPiEcOGqhfmIbuR-dZO-1" value="FuncionÃ¡rio" style="rounded=0;whiteSpace=wrap;html=1;" vertex="1" parent="1">
          <mxGeometry x="120" y="-110" width="120" height="60" as="geometry" />
        </mxCell>
        <mxCell id="4NPiEcOGqhfmIbuR-dZO-2" value="Setor" style="rounded=0;whiteSpace=wrap;html=1;" vertex="1" parent="1">
          <mxGeometry x="560" y="-110" width="120" height="60" as="geometry" />
        </mxCell>
        <mxCell id="4NPiEcOGqhfmIbuR-dZO-3" value="Trabalha" style="rhombus;whiteSpace=wrap;html=1;" vertex="1" parent="1">
          <mxGeometry x="330" y="-120" width="140" height="80" as="geometry" />
        </mxCell>
        <mxCell id="4NPiEcOGqhfmIbuR-dZO-7" value="" style="endArrow=none;html=1;rounded=0;exitX=1;exitY=0.5;exitDx=0;exitDy=0;" edge="1" parent="1" source="4NPiEcOGqhfmIbuR-dZO-1">
          <mxGeometry width="50" height="50" relative="1" as="geometry">
            <mxPoint x="280" y="-30" as="sourcePoint" />
            <mxPoint x="330" y="-80" as="targetPoint" />
          </mxGeometry>
        </mxCell>
        <mxCell id="4NPiEcOGqhfmIbuR-dZO-8" value="" style="endArrow=none;html=1;rounded=0;exitX=1;exitY=0.5;exitDx=0;exitDy=0;" edge="1" parent="1">
          <mxGeometry width="50" height="50" relative="1" as="geometry">
            <mxPoint x="470" y="-80.17000000000002" as="sourcePoint" />
            <mxPoint x="560" y="-80.17000000000002" as="targetPoint" />
          </mxGeometry>
        </mxCell>
        <mxCell id="4NPiEcOGqhfmIbuR-dZO-48" value="&lt;span style=&quot;font-weight: normal;&quot;&gt;tbl_Funcionario&lt;/span&gt;" style="swimlane;childLayout=stackLayout;resizeParent=1;resizeParentMax=0;startSize=20;html=1;" vertex="1" parent="1">
          <mxGeometry x="720" y="100" width="290" height="310" as="geometry" />
        </mxCell>
        <mxCell id="4NPiEcOGqhfmIbuR-dZO-49" value="KEY" style="swimlane;startSize=20;html=1;" vertex="1" parent="4NPiEcOGqhfmIbuR-dZO-48">
          <mxGeometry y="20" width="50" height="290" as="geometry">
            <mxRectangle y="20" width="40" height="140" as="alternateBounds" />
          </mxGeometry>
        </mxCell>
        <mxCell id="4NPiEcOGqhfmIbuR-dZO-52" value="&lt;u&gt;PK&lt;/u&gt;" style="text;strokeColor=none;fillColor=none;align=left;verticalAlign=top;spacingLeft=4;spacingRight=4;overflow=hidden;rotatable=0;points=[[0,0.5],[1,0.5]];portConstraint=eastwest;whiteSpace=wrap;html=1;" vertex="1" parent="4NPiEcOGqhfmIbuR-dZO-49">
          <mxGeometry x="10" y="30" width="30" height="26" as="geometry" />
        </mxCell>
        <mxCell id="4NPiEcOGqhfmIbuR-dZO-53" value="&lt;u&gt;FK&lt;/u&gt;" style="text;strokeColor=none;fillColor=none;align=left;verticalAlign=top;spacingLeft=4;spacingRight=4;overflow=hidden;rotatable=0;points=[[0,0.5],[1,0.5]];portConstraint=eastwest;whiteSpace=wrap;html=1;" vertex="1" parent="4NPiEcOGqhfmIbuR-dZO-49">
          <mxGeometry x="10" y="260" width="30" height="26" as="geometry" />
        </mxCell>
        <mxCell id="4NPiEcOGqhfmIbuR-dZO-50" value="FIELDS" style="swimlane;startSize=20;html=1;" vertex="1" parent="4NPiEcOGqhfmIbuR-dZO-48">
          <mxGeometry x="50" y="20" width="240" height="290" as="geometry" />
        </mxCell>
        <mxCell id="4NPiEcOGqhfmIbuR-dZO-45" value="&lt;u style=&quot;&quot;&gt;ID_&lt;/u&gt;&lt;u&gt;Funcionario&lt;/u&gt;" style="text;strokeColor=none;fillColor=none;align=left;verticalAlign=top;spacingLeft=4;spacingRight=4;overflow=hidden;rotatable=0;points=[[0,0.5],[1,0.5]];portConstraint=eastwest;whiteSpace=wrap;html=1;" vertex="1" parent="4NPiEcOGqhfmIbuR-dZO-50">
          <mxGeometry y="30" width="130" height="26" as="geometry" />
        </mxCell>
        <mxCell id="4NPiEcOGqhfmIbuR-dZO-15" value="Nome_Funcionario" style="text;strokeColor=none;fillColor=none;align=left;verticalAlign=top;spacingLeft=4;spacingRight=4;overflow=hidden;rotatable=0;points=[[0,0.5],[1,0.5]];portConstraint=eastwest;whiteSpace=wrap;html=1;" vertex="1" parent="4NPiEcOGqhfmIbuR-dZO-50">
          <mxGeometry y="56" width="110" height="26" as="geometry" />
        </mxCell>
        <mxCell id="4NPiEcOGqhfmIbuR-dZO-36" value="CPF_Funcionario" style="text;strokeColor=none;fillColor=none;align=left;verticalAlign=top;spacingLeft=4;spacingRight=4;overflow=hidden;rotatable=0;points=[[0,0.5],[1,0.5]];portConstraint=eastwest;whiteSpace=wrap;html=1;" vertex="1" parent="4NPiEcOGqhfmIbuR-dZO-50">
          <mxGeometry y="82" width="180" height="26" as="geometry" />
        </mxCell>
        <mxCell id="4NPiEcOGqhfmIbuR-dZO-37" value="RG_Funcionario" style="text;strokeColor=none;fillColor=none;align=left;verticalAlign=top;spacingLeft=4;spacingRight=4;overflow=hidden;rotatable=0;points=[[0,0.5],[1,0.5]];portConstraint=eastwest;whiteSpace=wrap;html=1;" vertex="1" parent="4NPiEcOGqhfmIbuR-dZO-50">
          <mxGeometry y="108" width="130" height="26" as="geometry" />
        </mxCell>
        <mxCell id="4NPiEcOGqhfmIbuR-dZO-35" value="Sexo_Funcionario" style="text;strokeColor=none;fillColor=none;align=left;verticalAlign=top;spacingLeft=4;spacingRight=4;overflow=hidden;rotatable=0;points=[[0,0.5],[1,0.5]];portConstraint=eastwest;whiteSpace=wrap;html=1;" vertex="1" parent="4NPiEcOGqhfmIbuR-dZO-50">
          <mxGeometry y="134" width="330" height="26" as="geometry" />
        </mxCell>
        <mxCell id="4NPiEcOGqhfmIbuR-dZO-38" value="Data_Nascimento_Funcionario" style="text;strokeColor=none;fillColor=none;align=left;verticalAlign=top;spacingLeft=4;spacingRight=4;overflow=hidden;rotatable=0;points=[[0,0.5],[1,0.5]];portConstraint=eastwest;whiteSpace=wrap;html=1;" vertex="1" parent="4NPiEcOGqhfmIbuR-dZO-50">
          <mxGeometry y="160" width="180" height="26" as="geometry" />
        </mxCell>
        <mxCell id="4NPiEcOGqhfmIbuR-dZO-39" value="Possui_Habilitacao_Funcionario" style="text;strokeColor=none;fillColor=none;align=left;verticalAlign=top;spacingLeft=4;spacingRight=4;overflow=hidden;rotatable=0;points=[[0,0.5],[1,0.5]];portConstraint=eastwest;whiteSpace=wrap;html=1;" vertex="1" parent="4NPiEcOGqhfmIbuR-dZO-50">
          <mxGeometry y="186" width="190" height="26" as="geometry" />
        </mxCell>
        <mxCell id="4NPiEcOGqhfmIbuR-dZO-42" value="Salario_Funcionario" style="text;strokeColor=none;fillColor=none;align=left;verticalAlign=top;spacingLeft=4;spacingRight=4;overflow=hidden;rotatable=0;points=[[0,0.5],[1,0.5]];portConstraint=eastwest;whiteSpace=wrap;html=1;" vertex="1" parent="4NPiEcOGqhfmIbuR-dZO-50">
          <mxGeometry y="212" width="150" height="26" as="geometry" />
        </mxCell>
        <mxCell id="4NPiEcOGqhfmIbuR-dZO-40" value="Carga_Horaria_Semanal_Funcionario" style="text;strokeColor=none;fillColor=none;align=left;verticalAlign=top;spacingLeft=4;spacingRight=4;overflow=hidden;rotatable=0;points=[[0,0.5],[1,0.5]];portConstraint=eastwest;whiteSpace=wrap;html=1;" vertex="1" parent="4NPiEcOGqhfmIbuR-dZO-50">
          <mxGeometry y="238" width="220" height="26" as="geometry" />
        </mxCell>
        <mxCell id="4NPiEcOGqhfmIbuR-dZO-43" value="&lt;u&gt;ID_Departamento&lt;/u&gt;" style="text;strokeColor=none;fillColor=none;align=left;verticalAlign=top;spacingLeft=4;spacingRight=4;overflow=hidden;rotatable=0;points=[[0,0.5],[1,0.5]];portConstraint=eastwest;whiteSpace=wrap;html=1;fontStyle=0" vertex="1" parent="4NPiEcOGqhfmIbuR-dZO-50">
          <mxGeometry y="264" width="330" height="26" as="geometry" />
        </mxCell>
        <mxCell id="4NPiEcOGqhfmIbuR-dZO-57" style="rounded=0;orthogonalLoop=1;jettySize=auto;html=1;edgeStyle=elbowEdgeStyle;exitX=0;exitY=0.5;exitDx=0;exitDy=0;strokeColor=#0055ff;" edge="1" parent="1" source="4NPiEcOGqhfmIbuR-dZO-53" target="4NPiEcOGqhfmIbuR-dZO-79">
          <mxGeometry relative="1" as="geometry">
            <mxPoint x="500" y="170" as="targetPoint" />
            <Array as="points">
              <mxPoint x="680" y="260" />
              <mxPoint x="810" y="480" />
            </Array>
          </mxGeometry>
        </mxCell>
        <mxCell id="4NPiEcOGqhfmIbuR-dZO-64" value="tbl_&lt;b&gt;Departamento&lt;/b&gt;" style="swimlane;childLayout=stackLayout;resizeParent=1;resizeParentMax=0;startSize=20;html=1;" vertex="1" parent="1">
          <mxGeometry x="295" y="110" width="210" height="110" as="geometry" />
        </mxCell>
        <mxCell id="4NPiEcOGqhfmIbuR-dZO-65" value="KEY" style="swimlane;startSize=20;html=1;" vertex="1" parent="4NPiEcOGqhfmIbuR-dZO-64">
          <mxGeometry y="20" width="50" height="90" as="geometry">
            <mxRectangle y="20" width="40" height="140" as="alternateBounds" />
          </mxGeometry>
        </mxCell>
        <mxCell id="4NPiEcOGqhfmIbuR-dZO-66" value="&lt;u&gt;PK&lt;/u&gt;" style="text;strokeColor=none;fillColor=none;align=left;verticalAlign=top;spacingLeft=4;spacingRight=4;overflow=hidden;rotatable=0;points=[[0,0.5],[1,0.5]];portConstraint=eastwest;whiteSpace=wrap;html=1;" vertex="1" parent="4NPiEcOGqhfmIbuR-dZO-65">
          <mxGeometry x="10" y="30" width="30" height="26" as="geometry" />
        </mxCell>
        <mxCell id="4NPiEcOGqhfmIbuR-dZO-68" value="FIELDS" style="swimlane;startSize=20;html=1;" vertex="1" parent="4NPiEcOGqhfmIbuR-dZO-64">
          <mxGeometry x="50" y="20" width="160" height="90" as="geometry" />
        </mxCell>
        <mxCell id="4NPiEcOGqhfmIbuR-dZO-79" value="&lt;u&gt;ID_Departamento&lt;/u&gt;" style="text;strokeColor=none;fillColor=none;align=left;verticalAlign=top;spacingLeft=4;spacingRight=4;overflow=hidden;rotatable=0;points=[[0,0.5],[1,0.5]];portConstraint=eastwest;whiteSpace=wrap;html=1;" vertex="1" parent="4NPiEcOGqhfmIbuR-dZO-68">
          <mxGeometry x="10" y="30" width="110" height="26" as="geometry" />
        </mxCell>
        <mxCell id="4NPiEcOGqhfmIbuR-dZO-80" value="Nome_Departamento" style="text;strokeColor=none;fillColor=none;align=left;verticalAlign=top;spacingLeft=4;spacingRight=4;overflow=hidden;rotatable=0;points=[[0,0.5],[1,0.5]];portConstraint=eastwest;whiteSpace=wrap;html=1;" vertex="1" parent="4NPiEcOGqhfmIbuR-dZO-68">
          <mxGeometry x="10" y="56" width="130" height="26" as="geometry" />
        </mxCell>
        <mxCell id="4NPiEcOGqhfmIbuR-dZO-81" value="&lt;span style=&quot;font-weight: normal;&quot;&gt;&lt;u style=&quot;&quot;&gt;tbl_&lt;/u&gt;Projeto&lt;/span&gt;" style="swimlane;childLayout=stackLayout;resizeParent=1;resizeParentMax=0;startSize=20;html=1;" vertex="1" parent="1">
          <mxGeometry x="-100" y="110" width="250" height="270" as="geometry" />
        </mxCell>
        <mxCell id="4NPiEcOGqhfmIbuR-dZO-82" value="KEY" style="swimlane;startSize=20;html=1;" vertex="1" parent="4NPiEcOGqhfmIbuR-dZO-81">
          <mxGeometry y="20" width="50" height="250" as="geometry">
            <mxRectangle y="20" width="40" height="140" as="alternateBounds" />
          </mxGeometry>
        </mxCell>
        <mxCell id="4NPiEcOGqhfmIbuR-dZO-83" value="&lt;u&gt;PK&lt;/u&gt;" style="text;strokeColor=none;fillColor=none;align=left;verticalAlign=top;spacingLeft=4;spacingRight=4;overflow=hidden;rotatable=0;points=[[0,0.5],[1,0.5]];portConstraint=eastwest;whiteSpace=wrap;html=1;" vertex="1" parent="4NPiEcOGqhfmIbuR-dZO-82">
          <mxGeometry x="10" y="30" width="30" height="26" as="geometry" />
        </mxCell>
        <mxCell id="4NPiEcOGqhfmIbuR-dZO-84" value="&lt;u&gt;FK&lt;/u&gt;" style="text;strokeColor=none;fillColor=none;align=left;verticalAlign=top;spacingLeft=4;spacingRight=4;overflow=hidden;rotatable=0;points=[[0,0.5],[1,0.5]];portConstraint=eastwest;whiteSpace=wrap;html=1;" vertex="1" parent="4NPiEcOGqhfmIbuR-dZO-82">
          <mxGeometry x="10" y="208" width="30" height="26" as="geometry" />
        </mxCell>
        <mxCell id="4NPiEcOGqhfmIbuR-dZO-122" value="&lt;u&gt;FK&lt;/u&gt;" style="text;strokeColor=none;fillColor=none;align=left;verticalAlign=top;spacingLeft=4;spacingRight=4;overflow=hidden;rotatable=0;points=[[0,0.5],[1,0.5]];portConstraint=eastwest;whiteSpace=wrap;html=1;" vertex="1" parent="4NPiEcOGqhfmIbuR-dZO-82">
          <mxGeometry x="10" y="184" width="30" height="26" as="geometry" />
        </mxCell>
        <mxCell id="4NPiEcOGqhfmIbuR-dZO-85" value="FIELDS" style="swimlane;startSize=20;html=1;" vertex="1" parent="4NPiEcOGqhfmIbuR-dZO-81">
          <mxGeometry x="50" y="20" width="200" height="250" as="geometry" />
        </mxCell>
        <mxCell id="4NPiEcOGqhfmIbuR-dZO-86" value="&lt;span&gt;ID_&lt;/span&gt;&lt;span&gt;Projeto&lt;/span&gt;" style="text;strokeColor=none;fillColor=none;align=left;verticalAlign=top;spacingLeft=4;spacingRight=4;overflow=hidden;rotatable=0;points=[[0,0.5],[1,0.5]];portConstraint=eastwest;whiteSpace=wrap;html=1;fontStyle=4" vertex="1" parent="4NPiEcOGqhfmIbuR-dZO-85">
          <mxGeometry y="30" width="90" height="26" as="geometry" />
        </mxCell>
        <mxCell id="4NPiEcOGqhfmIbuR-dZO-95" value="ID_Departamento" style="text;strokeColor=none;fillColor=none;align=left;verticalAlign=top;spacingLeft=4;spacingRight=4;overflow=hidden;rotatable=0;points=[[0,0.5],[1,0.5]];portConstraint=eastwest;whiteSpace=wrap;html=1;fontStyle=0" vertex="1" parent="4NPiEcOGqhfmIbuR-dZO-85">
          <mxGeometry y="184" width="120" height="26" as="geometry" />
        </mxCell>
        <mxCell id="4NPiEcOGqhfmIbuR-dZO-106" value="Nome_Projeto" style="text;strokeColor=none;fillColor=none;align=left;verticalAlign=top;spacingLeft=4;spacingRight=4;overflow=hidden;rotatable=0;points=[[0,0.5],[1,0.5]];portConstraint=eastwest;whiteSpace=wrap;html=1;fontStyle=0" vertex="1" parent="4NPiEcOGqhfmIbuR-dZO-85">
          <mxGeometry y="56" width="120" height="26" as="geometry" />
        </mxCell>
        <mxCell id="4NPiEcOGqhfmIbuR-dZO-117" value="Quantidade_Horas_Necessarias" style="text;strokeColor=none;fillColor=none;align=left;verticalAlign=top;spacingLeft=4;spacingRight=4;overflow=hidden;rotatable=0;points=[[0,0.5],[1,0.5]];portConstraint=eastwest;whiteSpace=wrap;html=1;fontStyle=0" vertex="1" parent="4NPiEcOGqhfmIbuR-dZO-85">
          <mxGeometry y="82" width="190" height="26" as="geometry" />
        </mxCell>
        <mxCell id="4NPiEcOGqhfmIbuR-dZO-118" value="Quantidade_Horas_Realizadas" style="text;strokeColor=none;fillColor=none;align=left;verticalAlign=top;spacingLeft=4;spacingRight=4;overflow=hidden;rotatable=0;points=[[0,0.5],[1,0.5]];portConstraint=eastwest;whiteSpace=wrap;html=1;fontStyle=0" vertex="1" parent="4NPiEcOGqhfmIbuR-dZO-85">
          <mxGeometry y="134" width="180" height="26" as="geometry" />
        </mxCell>
        <mxCell id="4NPiEcOGqhfmIbuR-dZO-119" value="Prazo_Estimado" style="text;strokeColor=none;fillColor=none;align=left;verticalAlign=top;spacingLeft=4;spacingRight=4;overflow=hidden;rotatable=0;points=[[0,0.5],[1,0.5]];portConstraint=eastwest;whiteSpace=wrap;html=1;fontStyle=0" vertex="1" parent="4NPiEcOGqhfmIbuR-dZO-85">
          <mxGeometry y="108" width="150" height="26" as="geometry" />
        </mxCell>
        <mxCell id="4NPiEcOGqhfmIbuR-dZO-120" value="ID_Funcionario_Supervisor" style="text;strokeColor=none;fillColor=none;align=left;verticalAlign=top;spacingLeft=4;spacingRight=4;overflow=hidden;rotatable=0;points=[[0,0.5],[1,0.5]];portConstraint=eastwest;whiteSpace=wrap;html=1;fontStyle=0" vertex="1" parent="4NPiEcOGqhfmIbuR-dZO-85">
          <mxGeometry y="210" width="160" height="26" as="geometry" />
        </mxCell>
        <mxCell id="4NPiEcOGqhfmIbuR-dZO-121" value="Data_Ultimo_Calculo_Horas" style="text;strokeColor=none;fillColor=none;align=left;verticalAlign=top;spacingLeft=4;spacingRight=4;overflow=hidden;rotatable=0;points=[[0,0.5],[1,0.5]];portConstraint=eastwest;whiteSpace=wrap;html=1;fontStyle=0" vertex="1" parent="4NPiEcOGqhfmIbuR-dZO-85">
          <mxGeometry y="160" width="180" height="26" as="geometry" />
        </mxCell>
        <mxCell id="4NPiEcOGqhfmIbuR-dZO-124" style="edgeStyle=orthogonalEdgeStyle;rounded=0;orthogonalLoop=1;jettySize=auto;html=1;entryX=0.475;entryY=0.385;entryDx=0;entryDy=0;entryPerimeter=0;" edge="1" parent="1" source="4NPiEcOGqhfmIbuR-dZO-95" target="4NPiEcOGqhfmIbuR-dZO-79">
          <mxGeometry relative="1" as="geometry">
            <Array as="points">
              <mxPoint x="225" y="327" />
              <mxPoint x="225" y="160" />
              <mxPoint x="407" y="160" />
              <mxPoint x="407" y="170" />
            </Array>
          </mxGeometry>
        </mxCell>
        <mxCell id="4NPiEcOGqhfmIbuR-dZO-126" style="edgeStyle=orthogonalEdgeStyle;rounded=0;orthogonalLoop=1;jettySize=auto;html=1;" edge="1" parent="1" source="4NPiEcOGqhfmIbuR-dZO-120">
          <mxGeometry relative="1" as="geometry">
            <mxPoint x="820" y="160" as="targetPoint" />
            <Array as="points">
              <mxPoint x="590" y="353" />
              <mxPoint x="590" y="110" />
              <mxPoint x="820" y="110" />
              <mxPoint x="820" y="160" />
            </Array>
          </mxGeometry>
        </mxCell>
        <mxCell id="4NPiEcOGqhfmIbuR-dZO-127" value="&lt;div style=&quot;text-align: left;&quot;&gt;&lt;span style=&quot;font-weight: normal;&quot;&gt;tbl_Trabalho&lt;/span&gt;&lt;/div&gt;" style="swimlane;childLayout=stackLayout;resizeParent=1;resizeParentMax=0;startSize=20;html=1;" vertex="1" parent="1">
          <mxGeometry x="285" y="390" width="230" height="200" as="geometry" />
        </mxCell>
        <mxCell id="4NPiEcOGqhfmIbuR-dZO-128" value="KEY" style="swimlane;startSize=20;html=1;" vertex="1" parent="4NPiEcOGqhfmIbuR-dZO-127">
          <mxGeometry y="20" width="50" height="180" as="geometry">
            <mxRectangle y="20" width="40" height="140" as="alternateBounds" />
          </mxGeometry>
        </mxCell>
        <mxCell id="4NPiEcOGqhfmIbuR-dZO-129" value="&lt;u&gt;PK&lt;/u&gt;" style="text;strokeColor=none;fillColor=none;align=left;verticalAlign=top;spacingLeft=4;spacingRight=4;overflow=hidden;rotatable=0;points=[[0,0.5],[1,0.5]];portConstraint=eastwest;whiteSpace=wrap;html=1;" vertex="1" parent="4NPiEcOGqhfmIbuR-dZO-128">
          <mxGeometry x="10" y="30" width="30" height="26" as="geometry" />
        </mxCell>
        <mxCell id="4NPiEcOGqhfmIbuR-dZO-140" value="&lt;u&gt;FK&lt;/u&gt;" style="text;strokeColor=none;fillColor=none;align=left;verticalAlign=top;spacingLeft=4;spacingRight=4;overflow=hidden;rotatable=0;points=[[0,0.5],[1,0.5]];portConstraint=eastwest;whiteSpace=wrap;html=1;" vertex="1" parent="4NPiEcOGqhfmIbuR-dZO-128">
          <mxGeometry x="10" y="48" width="30" height="26" as="geometry" />
        </mxCell>
        <mxCell id="4NPiEcOGqhfmIbuR-dZO-141" value="&lt;u&gt;FK&lt;/u&gt;" style="text;strokeColor=none;fillColor=none;align=left;verticalAlign=top;spacingLeft=4;spacingRight=4;overflow=hidden;rotatable=0;points=[[0,0.5],[1,0.5]];portConstraint=eastwest;whiteSpace=wrap;html=1;" vertex="1" parent="4NPiEcOGqhfmIbuR-dZO-128">
          <mxGeometry x="10" y="70" width="30" height="26" as="geometry" />
        </mxCell>
        <mxCell id="4NPiEcOGqhfmIbuR-dZO-130" value="FIELDS" style="swimlane;startSize=20;html=1;" vertex="1" parent="4NPiEcOGqhfmIbuR-dZO-127">
          <mxGeometry x="50" y="20" width="180" height="180" as="geometry" />
        </mxCell>
        <mxCell id="4NPiEcOGqhfmIbuR-dZO-131" value="&lt;span&gt;ID_&lt;/span&gt;Trabalho" style="text;strokeColor=none;fillColor=none;align=left;verticalAlign=top;spacingLeft=4;spacingRight=4;overflow=hidden;rotatable=0;points=[[0,0.5],[1,0.5]];portConstraint=eastwest;whiteSpace=wrap;html=1;fontStyle=4" vertex="1" parent="4NPiEcOGqhfmIbuR-dZO-130">
          <mxGeometry x="10" y="30" width="100" height="26" as="geometry" />
        </mxCell>
        <mxCell id="4NPiEcOGqhfmIbuR-dZO-132" value="ID_Funcionario&amp;nbsp;" style="text;strokeColor=none;fillColor=none;align=left;verticalAlign=top;spacingLeft=4;spacingRight=4;overflow=hidden;rotatable=0;points=[[0,0.5],[1,0.5]];portConstraint=eastwest;whiteSpace=wrap;html=1;" vertex="1" parent="4NPiEcOGqhfmIbuR-dZO-130">
          <mxGeometry x="10" y="48" width="100" height="26" as="geometry" />
        </mxCell>
        <mxCell id="4NPiEcOGqhfmIbuR-dZO-133" value="ID_Projeto&amp;nbsp;" style="text;strokeColor=none;fillColor=none;align=left;verticalAlign=top;spacingLeft=4;spacingRight=4;overflow=hidden;rotatable=0;points=[[0,0.5],[1,0.5]];portConstraint=eastwest;whiteSpace=wrap;html=1;" vertex="1" parent="4NPiEcOGqhfmIbuR-dZO-130">
          <mxGeometry x="10" y="74" width="110" height="26" as="geometry" />
        </mxCell>
        <mxCell id="4NPiEcOGqhfmIbuR-dZO-134" value="Quantidade_Horas_Trabalhadas" style="text;strokeColor=none;fillColor=none;align=left;verticalAlign=top;spacingLeft=4;spacingRight=4;overflow=hidden;rotatable=0;points=[[0,0.5],[1,0.5]];portConstraint=eastwest;whiteSpace=wrap;html=1;" vertex="1" parent="4NPiEcOGqhfmIbuR-dZO-130">
          <mxGeometry x="10" y="100" width="150" height="26" as="geometry" />
        </mxCell>
        <mxCell id="4NPiEcOGqhfmIbuR-dZO-135" value="Data_Inicio_Trabalho" style="text;strokeColor=none;fillColor=none;align=left;verticalAlign=top;spacingLeft=4;spacingRight=4;overflow=hidden;rotatable=0;points=[[0,0.5],[1,0.5]];portConstraint=eastwest;whiteSpace=wrap;html=1;" vertex="1" parent="4NPiEcOGqhfmIbuR-dZO-130">
          <mxGeometry x="10" y="126" width="140" height="26" as="geometry" />
        </mxCell>
        <mxCell id="4NPiEcOGqhfmIbuR-dZO-136" value="Data_Fim_Trabalho" style="text;strokeColor=none;fillColor=none;align=left;verticalAlign=top;spacingLeft=4;spacingRight=4;overflow=hidden;rotatable=0;points=[[0,0.5],[1,0.5]];portConstraint=eastwest;whiteSpace=wrap;html=1;" vertex="1" parent="4NPiEcOGqhfmIbuR-dZO-130">
          <mxGeometry x="10" y="152" width="110" height="26" as="geometry" />
        </mxCell>
        <mxCell id="4NPiEcOGqhfmIbuR-dZO-142" style="edgeStyle=orthogonalEdgeStyle;rounded=0;orthogonalLoop=1;jettySize=auto;html=1;entryX=0.182;entryY=0;entryDx=0;entryDy=0;entryPerimeter=0;fontColor=#F0421F;verticalAlign=middle;labelBorderColor=none;labelBackgroundColor=none;fillColor=#dae8fc;strokeColor=#6c8ebf;" edge="1" parent="1" source="4NPiEcOGqhfmIbuR-dZO-132" target="4NPiEcOGqhfmIbuR-dZO-45">
          <mxGeometry relative="1" as="geometry">
            <Array as="points">
              <mxPoint x="607" y="471" />
              <mxPoint x="607" y="140" />
              <mxPoint x="794" y="140" />
            </Array>
          </mxGeometry>
        </mxCell>
        <mxCell id="4NPiEcOGqhfmIbuR-dZO-143" style="edgeStyle=orthogonalEdgeStyle;rounded=0;orthogonalLoop=1;jettySize=auto;html=1;fontColor=#6A80F0;" edge="1" parent="1" source="4NPiEcOGqhfmIbuR-dZO-133">
          <mxGeometry relative="1" as="geometry">
            <mxPoint x="-20" y="170" as="targetPoint" />
            <Array as="points">
              <mxPoint x="340" y="497" />
              <mxPoint x="340" y="530" />
              <mxPoint x="-120" y="530" />
              <mxPoint x="-120" y="160" />
              <mxPoint x="-20" y="160" />
            </Array>
          </mxGeometry>
        </mxCell>
        <mxCell id="4NPiEcOGqhfmIbuR-dZO-168" value="&lt;div style=&quot;text-align: left;&quot;&gt;&lt;span style=&quot;font-weight: normal;&quot;&gt;tbl_SupervisÃ£o&lt;/span&gt;&lt;/div&gt;" style="swimlane;childLayout=stackLayout;resizeParent=1;resizeParentMax=0;startSize=20;html=1;" vertex="1" parent="1">
          <mxGeometry x="250" y="660" width="300" height="200" as="geometry" />
        </mxCell>
        <mxCell id="4NPiEcOGqhfmIbuR-dZO-169" value="KEY" style="swimlane;startSize=20;html=1;" vertex="1" parent="4NPiEcOGqhfmIbuR-dZO-168">
          <mxGeometry y="20" width="50" height="180" as="geometry">
            <mxRectangle y="20" width="40" height="140" as="alternateBounds" />
          </mxGeometry>
        </mxCell>
        <mxCell id="4NPiEcOGqhfmIbuR-dZO-170" value="&lt;u&gt;PK&lt;/u&gt;" style="text;strokeColor=none;fillColor=none;align=left;verticalAlign=top;spacingLeft=4;spacingRight=4;overflow=hidden;rotatable=0;points=[[0,0.5],[1,0.5]];portConstraint=eastwest;whiteSpace=wrap;html=1;" vertex="1" parent="4NPiEcOGqhfmIbuR-dZO-169">
          <mxGeometry x="10" y="30" width="30" height="26" as="geometry" />
        </mxCell>
        <mxCell id="4NPiEcOGqhfmIbuR-dZO-171" value="&lt;u&gt;FK&lt;/u&gt;" style="text;strokeColor=none;fillColor=none;align=left;verticalAlign=top;spacingLeft=4;spacingRight=4;overflow=hidden;rotatable=0;points=[[0,0.5],[1,0.5]];portConstraint=eastwest;whiteSpace=wrap;html=1;" vertex="1" parent="4NPiEcOGqhfmIbuR-dZO-169">
          <mxGeometry x="10" y="48" width="30" height="26" as="geometry" />
        </mxCell>
        <mxCell id="4NPiEcOGqhfmIbuR-dZO-172" value="&lt;u&gt;FK&lt;/u&gt;" style="text;strokeColor=none;fillColor=none;align=left;verticalAlign=top;spacingLeft=4;spacingRight=4;overflow=hidden;rotatable=0;points=[[0,0.5],[1,0.5]];portConstraint=eastwest;whiteSpace=wrap;html=1;" vertex="1" parent="4NPiEcOGqhfmIbuR-dZO-169">
          <mxGeometry x="10" y="70" width="30" height="26" as="geometry" />
        </mxCell>
        <mxCell id="4NPiEcOGqhfmIbuR-dZO-173" value="FIELDS" style="swimlane;startSize=20;html=1;" vertex="1" parent="4NPiEcOGqhfmIbuR-dZO-168">
          <mxGeometry x="50" y="20" width="250" height="180" as="geometry" />
        </mxCell>
        <mxCell id="4NPiEcOGqhfmIbuR-dZO-174" value="ID_Supervisao&amp;nbsp;" style="text;strokeColor=none;fillColor=none;align=left;verticalAlign=top;spacingLeft=4;spacingRight=4;overflow=hidden;rotatable=0;points=[[0,0.5],[1,0.5]];portConstraint=eastwest;whiteSpace=wrap;html=1;fontStyle=4" vertex="1" parent="4NPiEcOGqhfmIbuR-dZO-173">
          <mxGeometry x="10" y="30" width="100" height="26" as="geometry" />
        </mxCell>
        <mxCell id="4NPiEcOGqhfmIbuR-dZO-175" value="ID_Funcionario_Supervisor&amp;nbsp;" style="text;strokeColor=none;fillColor=none;align=left;verticalAlign=top;spacingLeft=4;spacingRight=4;overflow=hidden;rotatable=0;points=[[0,0.5],[1,0.5]];portConstraint=eastwest;whiteSpace=wrap;html=1;" vertex="1" parent="4NPiEcOGqhfmIbuR-dZO-173">
          <mxGeometry x="10" y="48" width="160" height="26" as="geometry" />
        </mxCell>
        <mxCell id="4NPiEcOGqhfmIbuR-dZO-176" value="ID_Projeto&amp;nbsp;" style="text;strokeColor=none;fillColor=none;align=left;verticalAlign=top;spacingLeft=4;spacingRight=4;overflow=hidden;rotatable=0;points=[[0,0.5],[1,0.5]];portConstraint=eastwest;whiteSpace=wrap;html=1;" vertex="1" parent="4NPiEcOGqhfmIbuR-dZO-173">
          <mxGeometry x="10" y="74" width="110" height="26" as="geometry" />
        </mxCell>
        <mxCell id="4NPiEcOGqhfmIbuR-dZO-178" value="Carga_Horaria_Semana_Supervisao" style="text;strokeColor=none;fillColor=none;align=left;verticalAlign=top;spacingLeft=4;spacingRight=4;overflow=hidden;rotatable=0;points=[[0,0.5],[1,0.5]];portConstraint=eastwest;whiteSpace=wrap;html=1;" vertex="1" parent="4NPiEcOGqhfmIbuR-dZO-173">
          <mxGeometry x="10" y="100" width="210" height="26" as="geometry" />
        </mxCell>
        <mxCell id="4NPiEcOGqhfmIbuR-dZO-184" style="edgeStyle=orthogonalEdgeStyle;rounded=0;orthogonalLoop=1;jettySize=auto;html=1;exitX=1;exitY=0.5;exitDx=0;exitDy=0;fontSize=12;startSize=8;endSize=8;" edge="1" parent="1" source="4NPiEcOGqhfmIbuR-dZO-175" target="4NPiEcOGqhfmIbuR-dZO-15">
          <mxGeometry relative="1" as="geometry">
            <Array as="points">
              <mxPoint x="670" y="741" />
              <mxPoint x="670" y="435" />
              <mxPoint x="1030" y="435" />
              <mxPoint x="1030" y="189" />
            </Array>
          </mxGeometry>
        </mxCell>
        <mxCell id="4NPiEcOGqhfmIbuR-dZO-185" style="edgeStyle=orthogonalEdgeStyle;rounded=0;orthogonalLoop=1;jettySize=auto;html=1;fillColor=#f8cecc;strokeColor=#b85450;" edge="1" parent="1" source="4NPiEcOGqhfmIbuR-dZO-176">
          <mxGeometry relative="1" as="geometry">
            <mxPoint x="-40" y="180" as="targetPoint" />
            <Array as="points">
              <mxPoint x="-210" y="770" />
              <mxPoint x="-210" y="180" />
            </Array>
          </mxGeometry>
        </mxCell>
      </root>
    </mxGraphModel>
  </diagram>
</mxfile>
